<?xml version="1.0" encoding="UTF-8"?>
<svg xmlns="http://www.w3.org/2000/svg" version="1.1" viewBox="0 0 1440 176.6">
  <defs>
    <style>
      .cls-1 {
        fill: #e4c287;
      }
    </style>
  </defs>
  <!-- Generator: Adobe Illustrator 28.7.10, SVG Export Plug-In . SVG Version: 1.2.0 Build 236)  -->
  <g>
    <g id="Layer_1">
      <g id="Layer_1-2" data-name="Layer_1">
        <g>
          <g>
            <path class="cls-1" d="M737,100.1c.4.4,1,.7,1.7.7s1.3-.2,1.7-.6l.6-.7c.3-.4.7-.8,1-1.1,2.8-2.8,4.9-6,6.8-9,0,0,0-.3.2-.4-.7-1.2-1.4-2.4-2.2-3.5-1.3-1.8-2.8-3.6-4.3-5.3l-1.6-1.9c-.5-.6-1.4-.7-1.8-.7-.7,0-1.3.2-1.7.6l-.6.7c-.3.4-.6.8-1,1.1-2.8,2.8-4.9,6-6.8,9,0,0,0,.3-.2.4.7,1.2,1.4,2.4,2.3,3.6,1.3,1.8,2.8,3.5,4.2,5.3l1.7,2v-.2Z"/>
            <path class="cls-1" d="M728.4,73c1.9-.5,3.9-.6,5.8-.7-1.3-.9-2.6-1.8-4-2.7-2.9-1.8-5.8-3.3-8.9-4.6,0,.6,0,1.2,0,1.8.3,1.6.5,3.3.6,4.9,0,.4,0,1.1.7,1.5.4.3.9.4,1.5.4h.9c1.1-.2,2.2-.3,3.3-.6h0Z"/>
            <path class="cls-1" d="M727.1,86h0c.7-1,1.3-2,2-3,1.5-2.1,3.3-4,5-5.9l.4-.5c.3-.3.6-.7.8-1.2-1.2,0-2.3.2-3.4.3-1.5,0-3,.3-4.5.6l-1.3.2c-1.8.2-2.2,1.2-2.2,2s0,.7.2,1.1c.9,2.2,1.8,4.4,2.8,6.5h.2Z"/>
            <path class="cls-1" d="M753.5,78.6v-.2c0-1-.4-1.6-1.4-1.8l-.8-.2c-.7-.2-1.4-.3-2.2-.4-2.2-.2-4.3-.4-6.4-.6.2.5.5.9.7,1.2l1.3,1.4c1.6,1.7,3.2,3.4,4.4,5.3.5.8,1,1.6,1.5,2.4.4-.8.8-1.6,1.1-2.4l.7-1.6c.3-.8.5-1.6.7-2.4l.2-.7h.2Z"/>
            <path class="cls-1" d="M736,70l1.3.9c1.4,1,2.5,1,3.8,0,3.4-2.8,6.8-4.9,10.4-6.6,1.4-.7,2.8-1.3,4.3-1.9.3,0,.5-.2.8-.3h0v-1.1h0c0-3.8-.6-6.8-1-9.1-.3-1.7-.6-3.7-1.2-5.6-.7-2.4-1.4-4.1-2.1-5.7l-.3-.6c-1.3-2.7-2.7-5.5-4.4-8.1-1.4-2.1-3.1-4.2-4.8-6.1-.7-.8-1.4-1.7-2.1-2.5-.4-.6-1.3-.8-1.9-.8s-1.2.2-1.5.6l-1.3,1.5c-1.4,1.7-2.9,3.3-4.2,5.1-2.1,2.8-4,5.9-5.6,9.5s-1.6,3.7-2.2,5.6c-.5,1.6-1,3.3-1.4,5.3-.3,1.5-.5,3.1-.8,4.7v1c-.2.5-.2.9-.3,1.4v1.1c0,1.1-.2,2.3-.2,3.4,3.3,1.3,6.5,2.9,9.4,4.7,1.9,1.1,3.6,2.4,5.4,3.7h-.1Z"/>
            <path class="cls-1" d="M755.4,72.4c.2-.9.3-1.7.4-2.6,0-1.1.3-2.9.4-4.5-.8.3-1.5.7-2.3,1-3.7,1.7-7,3.9-10.1,6.1h.2c1.7.2,3.4.5,5.1.7l2.8.4c.8,0,1.4.2,2,.2s1.4-.6,1.5-1.3h0Z"/>
            <path class="cls-1" d="M749.5,105.2c-1.9.5-3.9.6-5.8.7,1.3.9,2.6,1.8,4,2.7,2.9,1.8,5.9,3.4,8.8,4.6,0-.6,0-1.2,0-1.8-.3-1.6-.5-3.3-.6-4.9,0-.2,0-1-.7-1.5-.4-.3-.9-.4-1.5-.4h-.8c-1.1.2-2.2.3-3.3.6h0Z"/>
            <path class="cls-1" d="M726,104.8c-.8,0-1.4-.2-2-.2s-1.4.6-1.6,1.3c-.2.9-.3,1.7-.4,2.6,0,1.2-.3,2.9-.4,4.5.8-.3,1.6-.7,2.3-1,3.8-1.7,7.2-4.1,10.1-6.1h-.2c-1.7-.2-3.4-.5-5.1-.7l-2.8-.4h.1Z"/>
            <path class="cls-1" d="M734.4,101.6l-1.3-1.4c-1.6-1.7-3.2-3.5-4.5-5.3-.5-.8-1-1.6-1.5-2.4-.4.8-.8,1.6-1.1,2.4l-.7,1.7c-.3.7-.5,1.5-.7,2.3l-.2.8v.3c0,.6.4,1.4,1.4,1.6l.9.2c.7,0,1.4.3,2.1.4,2.2.2,4.3.4,6.4.6-.2-.5-.5-.9-.7-1.2h-.1Z"/>
            <path class="cls-1" d="M750.8,92.2h0c-.7,1-1.3,2-2,3-1.5,2.1-3.3,4-5.1,6l-.4.4c-.3.3-.6.7-.8,1.2,1.2,0,2.3-.2,3.4-.3,1.5,0,3-.3,4.5-.6l1.3-.2c1.8-.2,2.2-1.2,2.2-2s0-.7-.2-1.1c-.9-2.2-1.7-4.4-2.8-6.5h-.1Z"/>
            <path class="cls-1" d="M764.4,97.8l1.1-.5c1.9-.9,3.9-1.8,5.8-2.9,2.3-1.4,4.5-3,6.5-4.4.4-.3.7-.5,1-.8-.4-.3-.8-.7-1.2-1-1.9-1.5-3.8-2.8-5.6-3.9-1.9-1.2-3.9-2.2-6-3.2-2-.9-4.1-1.7-6.2-2.5-2.2-.8-2.9.9-3.1,1.5-.4,1.1-2.3,5.4-2.3,5.4-.5,1.1-1.1,2.3-1.7,3.4.6,1.1,1.3,2.3,1.9,3.4.9,1.7,1.6,3.5,2.3,5.5.6,1.6,1.3,2.3,3.3,1.6,1.4-.5,2.8-1,4.2-1.7h0Z"/>
            <path class="cls-1" d="M781.1,91.3c-2.8,2.4-5.9,4.6-9.5,6.5-2.5,1.3-5.1,2.5-7.7,3.7l-.5.2c-.8.4-1.7.6-2.6.9-1.5.4-1.7,1.3-1.7,1.7l.9,6.1.2,2.7v1.5c1,.4,2,.8,3.1,1.1,2.3.6,4.7,1.1,7,1.6,1.8.4,4.9.8,6.6.9,5.6.5,8.4.2,10.1,0,1.9-.2,3.8-.5,5.6-.7l2.1-.3c1.8-.3,2-1.4,2-1.9h0v-1.1c-.3-.8-.5-1.7-.9-2.6l-.2-.5c-1.2-2.5-2.5-5.1-3.9-7.5-2.3-3.9-5.3-7.6-8.9-11.1-.5-.5-1-.9-1.5-1.3h-.2Z"/>
            <path class="cls-1" d="M796.6,64.9c.3-.7.4-1.2.4-1.6,0-1.8-2-2.1-2.8-2.2l-1.8-.4c-1.2-.2-2.5-.4-3.7-.5-2.1,0-10.3-.2-12.2,0-2.6.3-4.9.5-7.2.9-2.9.6-5.4,1.3-7.7,2-.6.2-1.1.4-1.7.7,0,2.8-.3,5.7-1,8.4,0,.5-.2.9-.2,1.2s0,.8.3,1.2c.4.7,1.2,1,1.8,1.3,1.1.5,2.1.9,3,1.2,1.8.7,3.5,1.4,5.2,2.2,3,1.4,6,3.2,9.1,5.6,1,.7,2.1,1.6,3.1,2.5.4-.3.7-.6,1.1-.9.7-.7,1.4-1.4,2-2.2.4-.5.8-.9,1.2-1.4,2.7-2.9,5.2-6.2,7.3-10,1.4-2.6,2.6-5.3,3.7-7.9h.1Z"/>
            <path class="cls-1" d="M740.2,5.9c-46,0-83.3,37.3-83.3,83.3s37.3,83.3,83.3,83.3,83.3-37.3,83.3-83.3S786.2,5.9,740.2,5.9ZM786.1,91.9l1.3,1.4c1.4,1.5,2.7,3,3.9,4.6,1.2,1.5,2.2,3.2,3.2,4.9l.9,1.4c.5.9,1,1.8,1.4,2.7,1.3,3,2.5,5.9,3.7,8.9.3.7.5,1.3.6,2v.2h0c-2,1.4-4.2,1.8-6.3,2.2-.6,0-1.2.2-1.8.4-.8.2-1.7.3-2.5.5-.6,0-1.3,0-2,.2h-1.2c-1.9.3-5.7.6-15.5-.5-2.9-.4-6-1.1-9.3-2-.8-.3-1.6-.5-2.5-.8v.5c0,1.9-.4,3.9-.6,5.8v.8c-.4,1.9-.7,3.8-1.1,5.6-.3,1.4-.8,2.7-1.2,4l-.3,1c-.5,1.4-1,2.8-1.6,4.1-1.5,2.9-3.2,5.9-4.9,8.7-2.1,3.4-4.6,6.3-7.4,8.8-1.2,1.1-2.5,2-3.8,2.9-.6-.3-1.4-.7-2-1.2-2.6-2.1-5.1-4.7-7.7-8.2-2.3-3.1-4.4-6.5-6.5-10.9-.9-1.9-1.6-4-2.2-5.9l-.2-.7c-.7-2.3-1.3-4.1-1.7-6.5-.4-2.1-.7-4-.8-6,0-.9,0-2.1,0-3.2-3.2,1.3-6.6,2-10.6,2.8-1.1.2-7.4,1.3-16.8.8-2.7,0-5.5-.6-8.2-1.1l-1.1-.2c-1.2-.2-2.3-.5-3.5-.9l-.6-.2c-.5,0-.6-.2-.6-.2,0-.2,0-.4,0-.6.4-2.6,1-4.7,1.8-6.5s1.6-3.6,2.5-5.3c.9-1.8,1.7-3.4,2.7-4.8,1.9-2.7,3.6-4.9,5.2-6.8,1.6-1.8,3.4-3.7,5.5-5.7-.9-.8-1.9-1.7-2.7-2.6l-1.4-1.6c-1.3-1.4-2.6-2.9-3.7-4.4-1.2-1.6-2.2-3.3-3.3-5l-.8-1.3c-.5-.9-1-1.8-1.5-2.7-1.3-3-2.5-5.9-3.7-8.9-.3-.6-.5-1.3-.6-2,2-1.6,4.2-2.1,6.3-2.4.7,0,1.3-.2,2-.4.8-.2,1.6-.3,2.4-.4.6,0,1.3,0,1.9-.2h1.3c1.9-.3,5.7-.6,15.5.5,2.9.4,6,1.1,9.3,2.1.8.3,1.6.5,2.5.8v-.5c0-1.9.3-3.9.6-5.8v-.8c.4-1.9.7-3.7,1.1-5.6.3-1.4.8-2.7,1.2-4l.4-1c.5-1.4,1-2.8,1.6-4.1,1.6-3,3.2-5.9,4.9-8.7,2.1-3.4,4.6-6.3,7.4-8.8,1.2-1.1,2.5-2,3.7-2.9.7.3,1.4.7,2,1.2,2.7,2.1,5.1,4.7,7.7,8.2,2.3,3,4.4,6.6,6.5,10.9.9,1.9,1.6,4,2.2,5.9l.2.6c.7,2.3,1.3,4.1,1.7,6.5.4,2.1.7,4,.8,6,0,.9,0,2,0,3.2,3.2-1.3,6.6-2,10.6-2.8,1.2-.2,7.4-1.3,16.8-.8,2.8,0,5.6.6,8.3,1.1l1,.2c1.1.2,2.2.5,3.3.8l.8.2c.4,0,.6.2.6.2h0v.6c-.4,2.6-1,4.7-1.8,6.5-.8,1.8-1.6,3.6-2.5,5.3-.9,1.8-1.7,3.4-2.7,4.8-1.9,2.8-3.6,4.9-5.2,6.8-1.5,1.8-3.3,3.6-5.5,5.7.9.8,1.9,1.7,2.7,2.6h-.2Z"/>
            <path class="cls-1" d="M696.9,87c2.8-2.4,5.9-4.6,9.5-6.5,2.4-1.3,5-2.4,7.5-3.6l.8-.4c.8-.4,1.7-.6,2.6-.9,1.5-.4,1.6-1.3,1.6-1.7l-.3-1.9-.6-4.2-.2-2.8v-1.5c-1-.4-2-.8-3.1-1.1-2.3-.6-4.7-1.1-7.1-1.6-1.6-.3-4.8-.8-6.5-.9-5.7-.5-8.5-.2-10.2,0-1.9.2-3.8.5-5.7.8l-2,.3c-1.8.3-2,1.4-2,1.9h0v1.1c.3.8.5,1.7.9,2.5,1.3,2.7,2.6,5.5,4.1,8.1,2.3,3.9,5.3,7.7,8.9,11.1.5.5,1,.9,1.5,1.3h.3Z"/>
            <path class="cls-1" d="M717.2,102.4c-1.1-.5-2.1-.9-3-1.2-1.8-.7-3.5-1.4-5.2-2.2-3-1.4-6-3.2-9.1-5.6-1-.7-2.1-1.6-3.1-2.4-.4.3-.8.6-1.1.9-.7.7-1.4,1.4-2.1,2.2-.4.5-.8.9-1.2,1.4-2.7,2.9-5.2,6.2-7.3,10-1.4,2.5-2.5,5.2-3.7,7.7-.4.8-.5,1.3-.5,1.8,0,1.8,2,2.1,2.8,2.2l1.9.4c1.2.2,2.4.4,3.6.5,2.1,0,10.2.2,12.2,0,2.6-.3,4.9-.5,7.2-1,2.9-.6,5.4-1.2,7.7-2,.6-.2,1.1-.4,1.7-.7,0-3,.3-5.8,1-8.4,0-.5.2-.9.2-1.2s0-.8-.3-1.2c-.4-.7-1.2-1-1.8-1.3h0Z"/>
            <path class="cls-1" d="M723.4,92.7c.5-1.1,1.1-2.3,1.7-3.4-.6-1.1-1.2-2.2-1.8-3.2-1-1.9-1.7-3.8-2.4-5.6-.6-1.6-1.3-2.3-3.3-1.6-1.4.5-2.8,1-4.2,1.7l-1.2.5c-1.9.9-3.9,1.8-5.7,2.8-2.3,1.4-4.5,3-6.5,4.4-.4.3-.6.5-1,.8.4.3.7.7,1.1,1,2,1.5,3.8,2.8,5.6,3.9,1.9,1.2,3.9,2.2,6,3.2,2,.9,4.1,1.7,6.2,2.5,2,.7,2.7-.5,3.1-1.5.5-1.2,1-2.4,1.5-3.6l.8-1.8h.1Z"/>
            <path class="cls-1" d="M742,108.3l-1.3-.9c-1.4-1-2.5-1-3.8,0-3.5,2.8-6.9,4.9-10.4,6.6-1.4.7-2.8,1.3-4.2,1.9-.3,0-.5.2-.8.4h0v1h0c0,3.9.6,7.1,1,9.1.3,1.8.6,3.7,1.2,5.6.7,2.3,1.3,4.1,2.1,5.7l.3.6c1.3,2.7,2.7,5.5,4.4,8.1,1.5,2.2,3.2,4.2,4.8,6.2.7.8,1.4,1.6,2,2.5.4.6,1.3.8,1.9.8s1.2-.2,1.5-.6l1.3-1.5c1.5-1.7,2.9-3.4,4.3-5.1,2.1-2.8,4-5.9,5.6-9.5s1.6-3.7,2.2-5.6c.6-1.9,1.1-3.9,1.4-5.3.3-1.5.5-3.1.8-4.7v-1c.2-.5.2-1,.3-1.4v-1.1c0-1.1.2-2.3.2-3.4-3.4-1.3-6.5-2.9-9.4-4.7-1.8-1.1-3.6-2.4-5.4-3.7h0Z"/>
          </g>
          <path class="cls-1" d="M18,127.8h13.7v-52.3c5.8-9,14.6-16.6,24-16.6s15.1,7.5,15.1,18.9v50h13.7v-51.6c0-17.6-8.8-29.4-26.6-29.4s-20.5,6.2-26.2,14.5V15.3h-13.7v112.6h0Z"/>
          <path class="cls-1" d="M136.8,117.5c-14.1,0-24.6-12-24.6-29.2s10.2-29.5,24.8-29.5,14,2.6,19.5,6.4v42.4c-4.7,5.8-12,9.9-19.6,9.9M133.8,129.6c12.3,0,20.1-6.4,24.8-12.9,2,7.8,7.8,11.9,17.6,11.9l2.9-10.6c-4.4,0-9-1.5-9-9.3v-59.9h-12.5v6.4c-5.5-4.6-12.9-8.2-22.1-8.2-22.1,0-37.4,18.3-37.4,41.8s15.8,40.9,35.6,40.9"/>
          <path class="cls-1" d="M192.8,127.8h13.7v-37c0-20.7,11.1-30.1,22.4-30.1s5,.5,6.9,1.2l4.1-14.1c-2.1-.6-5.3-.9-8.4-.9-13.5,0-21.6,9.1-25.4,19v-17.2h-13.2v79.1h-.1Z"/>
          <path class="cls-1" d="M253.5,127.8h13.7v-52.3c5.8-9,14-16.6,23-16.6s14.3,7.5,14.3,18.4v50.5h13.7v-51.9c5.8-9.1,13.8-17,23-17s14.3,7.5,14.3,18.4v50.5h13.7v-51.6c0-17.3-8.4-29.4-25.6-29.4s-21,7.5-27.2,16.7c-3.4-10.2-11.4-16.7-23.9-16.7s-20.1,6.5-25.7,15.1v-13.2h-13.2v79.1h0Z"/>
          <path class="cls-1" d="M426,117.5c-14.4,0-25.4-13.5-25.4-29.5s9.4-28.9,25.4-28.9,25.4,13.4,25.4,29.2-9.4,29.2-25.4,29.2M426,129.6c22.5,0,39.4-16.4,39.4-41.7s-17.3-41.1-39.4-41.1-39.4,15.8-39.4,41.4,16.7,41.4,39.4,41.4"/>
          <path class="cls-1" d="M478.1,129.1h13.9v-53.1c5.9-9.1,14.7-16.8,24.2-16.8s15.4,7.6,15.4,19.2v50.8h13.9v-52.4c0-17.9-9-29.8-27-29.8s-21.3,6.6-27,15.3v-13.4h-13.4v80.3h0Z"/>
          <path class="cls-1" d="M588.7,121.9h7.3l-3.5,9.1c-6.1,16-12.5,20.2-21,20.2s-8.2-1.2-10.7-2.6l-3,11.4c2.6,1.7,7.3,3,13.4,3,15.2,0,25.9-7,34.8-31.3l29.1-79.4-12.6-4.9-23,65.3-29.5-65.9-12.2,5.5,30.9,69.5h0Z"/>
          <path class="cls-1" d="M929.1,101.2c-1.1,3.8-2.7,7-4.8,9.7s-4.6,4.8-7.7,6.3c-3.1,1.5-6.6,2.3-10.5,2.3s-10-1.6-14-4.7c-4-3.2-6.7-7.3-8.1-12.4-.3-1.7-.5-3.4-.5-5.3v-14.5c0-2.1.3-4.2.8-6.2,1.5-5.6,4.3-9.9,8.4-13.2,4.2-3.2,8.8-4.8,13.8-4.8s7.4.8,10.4,2.4c3,1.6,5.5,3.8,7.5,6.6,2,2.8,3.5,6,4.6,9.6s1.6,7.5,1.6,11.6-.6,8.9-1.7,12.7M880.9,129.4l.8-13.3h.3c3.1,5.3,6.9,9.2,11.4,11.6s9.7,3.6,15.6,3.6,8.9-.9,13.2-2.7c4.4-1.8,8.3-4.5,11.7-8.1s6.1-8.1,8.3-13.6c2.1-5.4,3.2-11.8,3.2-19s-.8-11.7-2.5-16.7-4-9.3-7-12.9c-3-3.6-6.6-6.4-10.8-8.4s-8.7-3-13.7-3-12.1,1.3-16.7,3.9c-4.6,2.6-8.2,6.2-10.7,10.8h-.3V11h-14.7v97.5c0,3.6,0,7.2-.2,11,0,3.8-.3,7.1-.5,9.8h12.7,0Z"/>
          <path class="cls-1" d="M997.2,117.5c-14.1,0-24.6-12-24.6-29.2s10.2-29.5,24.8-29.5,14,2.6,19.5,6.4v42.4c-4.7,5.8-12,9.9-19.6,9.9M994.2,129.6c12.3,0,20.1-6.4,24.8-12.9,2,7.8,7.8,11.9,17.6,11.9l2.9-10.6c-4.4,0-9-1.5-9-9.3v-59.9h-12.5v6.4c-5.5-4.6-12.9-8.2-22.1-8.2-22.1,0-37.4,18.3-37.4,41.8s15.8,40.9,35.6,40.9"/>
          <rect class="cls-1" x="1053.1" y="11.1" width="14.7" height="118.3"/>
          <path class="cls-1" d="M1122.7,117.5c-14.1,0-24.6-12-24.6-29.2s10.2-29.5,24.8-29.5,14,2.6,19.5,6.4v42.4c-4.7,5.8-12,9.9-19.6,9.9M1119.6,129.6c12.3,0,20.1-6.4,24.8-12.9,2,7.8,7.8,11.9,17.6,11.9l2.9-10.6c-4.4,0-9-1.5-9-9.3v-59.9h-12.5v6.4c-5.5-4.6-12.9-8.2-22.1-8.2-22.1,0-37.4,18.3-37.4,41.8s15.8,40.9,35.6,40.9"/>
          <path class="cls-1" d="M1182.1,129.4h14v-53.3c5.9-9.1,14.7-16.9,24.3-16.9s15.5,7.6,15.5,19.2v51h14v-52.6c0-18-9-29.9-27.1-29.9s-21.4,6.7-27.1,15.4v-13.5h-13.5v80.6h-.1Z"/>
          <path class="cls-1" d="M1331.3,126.5c-1.9.9-4.9,1.9-8.9,3-4.1,1.1-8.8,1.7-14.3,1.7s-11.6-1-16.6-3c-4.9-2-9.2-4.8-12.6-8.4-3.5-3.6-6.1-7.9-8-13s-2.8-10.7-2.8-16.9,1-11.9,3-17.2c2-5.2,4.9-9.7,8.7-13.6,3.7-3.8,8.3-6.8,13.6-9,5.3-2.2,11.3-3.3,17.8-3.3s8.3.4,11.9,1.3c3.6.9,6.4,1.9,8.4,3l-3.3,11.2c-1.8-.9-4-1.8-6.8-2.6s-6.2-1.2-10.2-1.2-8.8.8-12.2,2.4c-3.5,1.6-6.5,3.8-8.9,6.6-2.4,2.8-4.3,6-5.5,9.7s-1.8,7.7-1.8,11.9.7,8.9,2.1,12.6,3.3,6.9,5.8,9.5,5.5,4.6,8.9,6,7.2,2.1,11.2,2.1,7.7-.4,10.6-1.2c2.8-.8,5.3-1.7,7.4-2.6l2.5,11h0Z"/>
          <path class="cls-1" d="M1357.2,81c.3-2.6,1-5.2,1.9-8s2.3-5.3,4.2-7.7c1.8-2.3,4.1-4.3,6.8-5.8,2.7-1.6,5.9-2.3,9.7-2.3s7.5.8,10.1,2.4c2.6,1.6,4.7,3.6,6.2,6.1,1.5,2.4,2.5,5,3.1,7.7s.8,5.3.8,7.6h-42.8ZM1345.6,106.9c1.8,5,4.4,9.3,7.8,12.9s7.5,6.4,12.4,8.3c4.9,1.9,10.4,2.9,16.7,2.9s11.9-.6,16.4-1.7c4.5-1.1,8-2.3,10.6-3.5l-2.7-10.3c-2.7,1.1-5.7,2.1-9.2,2.8-3.4.8-7.8,1.2-13.2,1.2s-7.1-.5-10.4-1.6-6.2-2.7-8.7-5-4.5-5.2-6-8.7-2.3-7.7-2.4-12.8l56.5.2c.3-1.7.5-4,.5-7s-.5-7.7-1.5-12.2c-1-4.4-2.8-8.6-5.3-12.4-2.5-3.8-5.9-7-10.2-9.6-4.3-2.6-9.7-3.8-16.2-3.8s-11.2,1.1-15.8,3.4c-4.7,2.3-8.6,5.4-11.9,9.2-3.3,3.9-5.8,8.5-7.6,13.8-1.8,5.3-2.7,11.1-2.7,17.2s.9,11.5,2.7,16.5"/>
        </g>
      </g>
    </g>
  </g>
</svg>