<?xml version="1.0" encoding="UTF-8"?>
<svg xmlns="http://www.w3.org/2000/svg" version="1.1" viewBox="0 0 1440 176.6">
  <defs>
    <style>
      .cls-1 {
        fill: #e4c287;
      }
    </style>
  </defs>
  <!-- Generator: Adobe Illustrator 28.7.10, SVG Export Plug-In . SVG Version: 1.2.0 Build 236)  -->
  <g>
    <g id="Layer_1">
      <g id="H_x26_B_LOGO_-_GOLD_FOIL">
        <g>
          <path class="cls-1" d="M781.9,71.8c.2-.7.3-1.5.4-2.2,0-.7.1-1.6.2-2.6-.2.1-.5.2-.7.3-2.5,1.2-4.8,2.6-7.1,4.2,1.7.2,3.3.5,5,.7.5,0,1.1.2,1.6.1.2,0,.5-.3.6-.5Z"/>
          <path class="cls-1" d="M767.1,77.7c-.5.6-1,1.1-1.5,1.7-2.4,2.4-4.2,5.2-5.9,7.9.5.9,1.1,1.8,1.7,2.7,1.6,2.3,3.5,4.4,5.4,6.5.4.4,1.4.5,1.8,0,.5-.6,1-1.2,1.5-1.7,2.4-2.4,4.2-5.1,5.9-7.9-.5-.9-1.1-1.8-1.7-2.7-1.6-2.3-3.5-4.4-5.3-6.5-.4-.4-1.5-.5-1.8,0Z"/>
          <path class="cls-1" d="M752.9,66.7s0,0,0,0c.2,1.5.4,3,.5,4.6,0,.7.3,1,1,.9,1.2-.1,2.5-.2,3.7-.5,1-.2,1.9-.4,2.9-.5-.5-.3-1-.7-1.5-1-2.1-1.3-4.3-2.5-6.6-3.5Z"/>
          <path class="cls-1" d="M762.8,75.8c-.4,0-.8,0-1.2,0-1.7.2-3.5.4-5.2.7-1.1.1-1.5.6-1.1,1.6.6,1.5,1.2,3,1.9,4.5.3-.5.6-1,1-1.5,1.4-1.9,3-3.6,4.6-5.4Z"/>
          <path class="cls-1" d="M779.6,76.7c-.9-.2-1.7-.4-2.6-.5-1.3-.1-2.6-.3-3.8-.4,1.6,1.8,3.3,3.6,4.7,5.6.2.3.3.6.5.8.3-.7.7-1.5,1-2.2.4-.8.5-1.7.8-2.6.1-.4-.1-.7-.6-.7Z"/>
          <path class="cls-1" d="M756,97.7c.9.2,1.7.4,2.6.5,1.3.1,2.6.3,3.8.4-1.6-1.8-3.3-3.6-4.7-5.6-.2-.3-.3-.6-.5-.9-.3.7-.7,1.5-1,2.2-.4.8-.5,1.7-.8,2.6-.1.4.2.7.6.7Z"/>
          <path class="cls-1" d="M772.9,98.6c.4,0,.8,0,1.2,0,1.7-.2,3.5-.4,5.2-.7,1.1-.1,1.5-.6,1.1-1.6-.6-1.5-1.2-3-1.9-4.5-.3.5-.6,1-1,1.5-1.4,1.9-3,3.6-4.6,5.4Z"/>
          <path class="cls-1" d="M786.7,72c-.1.5-.2,1.1,0,1.5.2.4.8.6,1.3.8,2.4,1,5,1.9,7.4,3.1,3,1.4,5.8,3.2,8.4,5.1.8.6,1.5,1.2,2.3,1.8.1-.1.3-.2.4-.3,1.1-1,1.9-2.1,2.9-3.2,2.6-2.7,4.7-5.7,6.4-8.9,1.3-2.3,2.3-4.7,3.3-7.1.7-1.5.3-2-1.5-2.3,0,0-.2,0-.2,0-1.6-.3-3.1-.6-4.7-.7-1.9-.1-9.2-.2-10.9,0-2.1.2-4.3.4-6.4.8-2.3.5-4.7,1.1-6.9,1.8-.3.1-.7.3-1,.4-.1,2.4-.3,4.9-.9,7.2Z"/>
          <path class="cls-1" d="M739,83.1c-2,1.2-3.9,2.6-5.8,3.9,0,0,0,0,0,0,0,0,.1.1.2.2,1.6,1.2,3.2,2.4,5,3.5,1.7,1,3.5,2,5.3,2.9,1.8.8,3.7,1.5,5.6,2.2.9.3,1.3,0,1.7-.8.7-1.6,1.4-3.3,2-4.9.4-.9.9-1.8,1.4-2.7-.5-.9-1-1.8-1.5-2.6-.9-1.6-1.5-3.4-2.2-5.1-.4-1.2-.6-1.4-1.9-.9-1.3.4-2.5.9-3.7,1.5-2.1,1-4.2,1.9-6.1,3Z"/>
          <path class="cls-1" d="M768.9,104.4c-.9-.7-1.5-.7-2.4,0-3,2.4-6.1,4.5-9.6,6.1-1.3.6-2.7,1.2-4.1,1.8.1,3.6.5,6.5.9,8.5.3,1.7.6,3.3,1.1,4.9.5,1.7,1.1,3.4,1.9,5.1,1.3,2.6,2.5,5.3,4.2,7.8,1.8,2.7,4.1,5.2,6.1,7.8.3.4,1.4.5,1.7.2,1.7-2,3.4-3.9,5-6,2-2.6,3.6-5.4,4.9-8.4.7-1.6,1.4-3.3,2-5,.5-1.6.9-3.1,1.2-4.7.3-1.7.6-3.4.8-5.1.1-.7.1-1.5.2-2.3,0-.8,0-1.6.1-2.4-2.8-1.1-5.5-2.5-8.1-4.1-2.1-1.3-4.1-2.8-6.1-4.2Z"/>
          <path class="cls-1" d="M818.4,108.1c-1.2-2.4-2.3-4.9-3.7-7.2-2.1-3.6-4.8-6.9-7.9-9.9-.3-.2-.6-.5-.8-.7-2.5,2.1-5.2,3.9-8.2,5.5-2.5,1.3-5,2.5-7.6,3.6-.9.4-1.8.6-2.7.9-.5.1-.7.4-.6.8.3,1.7.5,3.5.8,5.3,0,.2,0,.3,0,.5,0,1,0,2,.1,2.9.7.3,1.4.5,2.1.7,2.1.6,4.3,1,6.4,1.5,1.5.3,4.3.7,5.7.8,5.1.5,7.6.2,9.1,0,2.3-.2,4.6-.6,6.9-.9.7-.1,1.2-.4,1-1.2-.2-.9-.4-1.8-.8-2.6Z"/>
          <path class="cls-1" d="M729.7,84.1c2.5-2.1,5.2-3.9,8.2-5.5,2.5-1.3,5-2.5,7.6-3.6.9-.4,1.8-.6,2.7-.9.5-.1.7-.4.6-.8-.3-1.8-.5-3.5-.8-5.3,0-.2,0-.3,0-.5,0-1,0-2-.1-2.9-.7-.3-1.4-.5-2.1-.7-2.1-.6-4.3-1-6.4-1.5-1.5-.3-4.3-.7-5.7-.8-5.1-.5-7.6-.2-9.1,0-2.3.2-4.6.6-6.9.9-.7,0-1.2.4-1,1.2.2.9.4,1.8.8,2.6,1.2,2.4,2.4,4.9,3.7,7.3,2.1,3.6,4.8,6.9,7.9,9.8.3.2.6.5.8.7Z"/>
          <path class="cls-1" d="M748.9,102.3c.1-.5.2-1.1,0-1.5-.2-.4-.8-.6-1.3-.8-2.4-1-5-1.9-7.4-3.1-3-1.4-5.8-3.2-8.4-5.1-.8-.6-1.5-1.2-2.3-1.8-.1.1-.3.2-.4.3-1.1,1-1.9,2.1-2.9,3.2-2.6,2.7-4.7,5.7-6.4,8.9-1.3,2.3-2.3,4.7-3.3,7.1-.7,1.5-.3,2,1.5,2.3,0,0,.2,0,.2,0,1.6.2,3.1.6,4.7.7,1.9.1,9.2.2,10.9,0,2.1-.2,4.3-.4,6.4-.8,2.3-.5,4.7-1.1,6.9-1.8.3-.1.7-.3,1-.4.1-2.4.3-4.9.9-7.2Z"/>
          <path class="cls-1" d="M769,11.7c-41.7,0-75.5,33.8-75.5,75.5s33.8,75.5,75.5,75.5,75.5-33.8,75.5-75.5-33.8-75.5-75.5-75.5ZM824.7,114.3c-1.8,1.2-3.8,1.6-5.9,2-1.3.2-2.6.5-4,.7-1,.1-2,.2-2.9.2-1.7.2-5.2.5-14.2-.5-2.9-.4-5.8-1.1-8.6-1.9-.4-.1-.8-.3-1.2-.4-.1,1.8-.4,3.6-.6,5.3-.2,1.7-.5,3.5-.9,5.2-.3,1.3-.7,2.5-1.1,3.8-.6,1.6-1.1,3.2-1.9,4.7-1.4,2.7-2.9,5.3-4.5,7.9-1.9,3-4.1,5.8-6.8,8.2-1.1,1-2.3,1.9-3.5,2.7-.2.2-.7.2-.9,0-.7-.3-1.4-.7-1.9-1.1-2.7-2.2-5-4.8-7.1-7.6-2.4-3.1-4.3-6.5-6-10-.8-1.7-1.5-3.6-2-5.4-.7-2.4-1.3-4.2-1.8-6.6-.4-1.8-.6-3.6-.7-5.5,0-.5,0-1.1,0-1.7-2.8,1-5.7,1.6-8.6,2.1-2.1.4-7.7,1.2-15.5.7-2.9-.1-5.7-.7-8.5-1.2-1.3-.2-2.5-.6-3.8-1-1.1-.3-1.2-.6-1.1-1.7.3-2.1.8-4.2,1.7-6.1.7-1.7,1.5-3.3,2.3-4.9.8-1.5,1.5-3.1,2.5-4.5,1.5-2.2,3.1-4.3,4.8-6.3,1.4-1.6,2.9-3.1,4.4-4.6-.6-.6-1.3-1.1-1.8-1.8-1.6-1.8-3.3-3.6-4.7-5.5-1.4-1.8-2.6-3.8-3.8-5.8-.5-.8-1-1.7-1.4-2.6-1.2-2.7-2.3-5.4-3.4-8.1-.3-.6-.5-1.3-.6-2,0-.5,0-.9.5-1.2,1.8-1.2,3.8-1.6,5.9-2,1.3-.2,2.6-.5,3.9-.7,1-.1,2-.1,2.9-.2,1.7-.1,5.2-.5,14.2.5,2.9.4,5.8,1.1,8.6,1.9.4.1.8.3,1.2.4.1-1.8.4-3.6.6-5.3.2-1.7.5-3.4.9-5.1.3-1.3.7-2.5,1.1-3.8.6-1.6,1.1-3.2,1.9-4.7,1.4-2.7,2.9-5.3,4.5-7.9,1.9-3,4.1-5.8,6.8-8.2,1.1-1,2.3-1.9,3.5-2.7.2-.2.7-.2.9,0,.7.3,1.4.7,1.9,1.2,2.8,2.2,5.1,4.8,7.1,7.6,2.4,3.1,4.3,6.5,6,10,.8,1.7,1.5,3.6,2,5.4.7,2.4,1.3,4.2,1.8,6.6.4,1.9.6,3.6.8,5.5,0,.5,0,1.1,0,1.7,2.8-1,5.7-1.6,8.6-2.1,2.1-.4,7.7-1.2,15.5-.7,2.9.1,5.7.7,8.5,1.2,1.3.2,2.5.6,3.8,1,1.1.3,1.2.6,1.1,1.7-.3,2.1-.8,4.2-1.7,6.1-.7,1.7-1.5,3.3-2.3,4.9-.8,1.5-1.6,3.1-2.5,4.5-1.5,2.2-3.1,4.3-4.8,6.3-1.4,1.6-2.9,3.1-4.4,4.6.6.6,1.3,1.1,1.8,1.8,1.6,1.8,3.3,3.6,4.7,5.5,1.4,1.8,2.6,3.8,3.8,5.8.5.8,1,1.7,1.4,2.6,1.2,2.7,2.3,5.4,3.4,8.1.3.6.5,1.3.6,2,0,.5,0,.9-.5,1.2Z"/>
          <path class="cls-1" d="M782.8,107.6s0,0,0,0c-.2-1.5-.4-3-.5-4.6,0-.7-.3-1-1-.9-1.2.1-2.5.2-3.7.5-1,.2-1.9.4-2.9.5.5.3,1,.7,1.5,1,2.1,1.3,4.3,2.5,6.6,3.5Z"/>
          <path class="cls-1" d="M766.8,69.9c.9.7,1.5.7,2.4,0,3-2.4,6.1-4.5,9.6-6.1,1.3-.6,2.7-1.2,4.1-1.8-.1-3.6-.5-6.5-.9-8.5-.3-1.7-.6-3.3-1.1-4.9-.5-1.7-1.1-3.4-1.9-5.1-1.3-2.6-2.5-5.3-4.2-7.8-1.8-2.7-4.1-5.2-6.1-7.8-.3-.4-1.4-.5-1.7-.2-1.7,2-3.4,3.9-5,6-2,2.6-3.6,5.4-4.9,8.4-.7,1.6-1.4,3.3-2,5-.5,1.5-.9,3.1-1.2,4.7-.3,1.7-.6,3.4-.8,5.1,0,.8-.1,1.5-.2,2.3,0,.8,0,1.6-.1,2.4,2.8,1.1,5.5,2.5,8.1,4.1,2.1,1.3,4.1,2.8,6.1,4.2Z"/>
          <path class="cls-1" d="M796.7,91.2c2-1.2,3.9-2.5,5.8-3.9,0,0,0,0,0,0,0,0-.1-.1-.2-.2-1.6-1.2-3.2-2.4-5-3.5-1.7-1-3.5-2-5.3-2.9-1.8-.8-3.7-1.5-5.6-2.2-.9-.3-1.3,0-1.7.8-.7,1.6-1.4,3.3-2,4.9-.4.9-.9,1.8-1.4,2.7.5.9,1,1.8,1.5,2.6.9,1.6,1.5,3.4,2.2,5.1.4,1.2.6,1.4,1.9.9,1.3-.4,2.5-.9,3.7-1.5,2.1-1,4.2-1.9,6.1-3Z"/>
          <path class="cls-1" d="M760.9,102.9c-1.7-.2-3.3-.5-5-.7-.5,0-1.1-.2-1.6-.1-.2,0-.5.3-.6.5-.2.7-.3,1.5-.4,2.2,0,.7-.2,1.6-.2,2.6.2-.1.5-.2.7-.3,2.5-1.1,4.8-2.6,7.1-4.2Z"/>
        </g>
        <g>
          <g>
            <path class="cls-1" d="M114,62c5.1-7.4,13-13.1,23.7-13.1,16.1,0,24.1,10.6,24.1,26.6v46.8h-12.4v-45.4c0-10.3-5-17.1-13.7-17.1-8.6,0-16.6,6.9-21.8,15v47.5h-12.4V20.2h12.4v41.8Z"/>
            <path class="cls-1" d="M212.4,48.9c8.3,0,15,3.3,20,7.5v-5.8h11.3v54.4c0,7,4.1,8.4,8.1,8.4l-2.6,9.7c-9,0-14.2-3.7-16-10.8-4.3,5.9-11.3,11.7-22.5,11.7-17.9,0-32.3-14.5-32.3-37.1,0-21.4,13.9-37.9,33.9-37.9ZM231.3,103.9v-38.5c-5-3.4-11-5.8-17.7-5.8-13.2,0-22.5,10.8-22.5,26.8,0,15.6,9.5,26.5,22.3,26.5,6.9,0,13.5-3.7,17.8-9Z"/>
            <path class="cls-1" d="M307.3,62.6c-1.7-.7-3.9-1.1-6.2-1.1-10.2,0-20.3,8.6-20.3,27.3v33.5h-12.4V50.5h12v15.6c3.4-9,10.8-17.2,23-17.2,2.8,0,5.7.3,7.6.8l-3.7,12.8Z"/>
            <path class="cls-1" d="M335.5,62.6c5.1-7.7,13.1-13.7,23.3-13.7,11.3,0,18.6,5.9,21.7,15.2,5.7-8.4,13.1-15.2,24.7-15.2,15.6,0,23.2,10.9,23.2,26.6v46.8h-12.4v-45.8c0-9.9-5-16.7-13-16.7-8.3,0-15.6,7.2-20.8,15.5v47h-12.4v-45.8c0-9.9-5-16.7-13-16.7-8.1,0-15.6,6.9-20.8,15v47.5h-12.4V50.5h12v12Z"/>
            <path class="cls-1" d="M479.9,48.9c20,0,35.7,14.5,35.7,37.2,0,22.9-15.3,37.8-35.7,37.8-20.6,0-35.7-15.3-35.7-37.5,0-23.2,15.4-37.5,35.7-37.5ZM479.9,59.9c-14.5,0-23,10.5-23,26.2,0,14.5,9.9,26.8,23,26.8,14.5,0,23-10.8,23-26.5,0-14.3-9.9-26.5-23-26.5Z"/>
            <path class="cls-1" d="M544.2,62.6c5.1-7.7,13.1-13.7,24.1-13.7,16.1,0,24.1,10.6,24.1,26.6v46.8h-12.4v-45.4c0-10.3-5.1-17.1-13.8-17.1-8.6,0-16.4,6.9-21.7,15v47.5h-12.4V50.5h12v12Z"/>
            <path class="cls-1" d="M603.5,151.5l2.8-10.3c2.2,1.2,5.5,2.3,9.7,2.3,7.7,0,13.5-3.9,19-18.3l3.2-8.3h-6.6s-28-63-28-63l11-5,26.8,59.7,20.8-59.2,11.5,4.4-26.3,72c-8.1,22.1-17.8,28.4-31.6,28.4-5.5,0-9.8-1.2-12.1-2.8Z"/>
          </g>
          <g>
            <path class="cls-1" d="M885.7,24.6h13.3v45.8s.3,0,.3,0c2.3-4.1,5.6-7.4,9.7-9.7,4.2-2.4,9.2-3.6,15.2-3.6,4.5,0,8.7.9,12.5,2.7,3.8,1.8,7,4.4,9.8,7.6,2.7,3.3,4.8,7.2,6.3,11.7,1.5,4.5,2.3,9.6,2.3,15.1,0,6.5-1,12.3-2.9,17.2-1.9,4.9-4.4,9-7.5,12.3-3.1,3.3-6.6,5.7-10.6,7.3-4,1.6-8,2.4-12,2.4-5.3,0-10-1.1-14.1-3.2-4.1-2.2-7.5-5.7-10.4-10.5h-.3l-.8,12.1h-11.5c.2-2.5.4-5.5.5-8.9,0-3.4.2-6.7.2-10V24.6ZM899,102.6c0,1.7.2,3.3.5,4.8,1.3,4.6,3.8,8.4,7.4,11.3,3.6,2.9,7.8,4.3,12.7,4.3,3.5,0,6.7-.7,9.5-2,2.8-1.4,5.1-3.3,7-5.7,1.9-2.5,3.3-5.4,4.3-8.8,1-3.4,1.5-7.3,1.5-11.5,0-3.7-.5-7.2-1.4-10.5-1-3.3-2.3-6.2-4.2-8.7-1.8-2.5-4.1-4.5-6.8-6-2.7-1.5-5.9-2.2-9.4-2.2-4.6,0-8.7,1.5-12.5,4.4-3.8,2.9-6.3,6.9-7.7,11.9-.5,1.8-.8,3.7-.8,5.6v13.1Z"/>
            <path class="cls-1" d="M1023.2,114.4c0,3.2,0,6.3.2,9.3.2,3,.4,5.7.8,8.2h-11.9s-1.2-9.2-1.2-9.2h-.5c-2,2.9-4.9,5.5-8.8,7.6-3.8,2.2-8.4,3.2-13.6,3.2-3.7,0-7-.6-9.8-1.8-2.8-1.2-5.1-2.8-6.9-4.8-1.9-2-3.3-4.2-4.2-6.7-1-2.5-1.4-5.1-1.4-7.7,0-8.9,3.8-15.6,11.3-20.3,7.6-4.7,18.4-7,32.6-6.9v-1.5c0-1.5-.2-3.2-.5-5.2-.4-2-1.1-3.8-2.2-5.6-1.1-1.8-2.8-3.2-5-4.4-2.2-1.2-5.2-1.7-8.9-1.7-3.5,0-7,.5-10.3,1.4-3.3,1-6.3,2.3-8.9,4l-3-8.9c3-1.9,6.6-3.5,10.9-4.6,4.2-1.2,8.7-1.7,13.3-1.7,5.6,0,10.3.9,13.9,2.6,3.6,1.8,6.5,4.1,8.5,6.9,2.1,2.8,3.5,6,4.3,9.6.8,3.6,1.2,7.2,1.2,10.8v27.4ZM1010.2,94.6c-3.6-.1-7.3,0-11,.5-3.7.4-7,1.2-10,2.3-3,1.2-5.4,2.8-7.3,5.1-1.9,2.2-2.8,5.1-2.8,8.6,0,4.4,1.2,7.7,3.7,9.7,2.5,2,5.4,3,8.7,3,4.8,0,8.8-1.3,11.8-3.8,3-2.5,5.1-5.3,6.2-8.5.4-1.2.6-2.6.6-4.2v-12.7Z"/>
            <path class="cls-1" d="M1044.5,24.6h13.3v107.3h-13.3V24.6Z"/>
            <path class="cls-1" d="M1131.4,114.4c0,3.2,0,6.3.2,9.3.2,3,.4,5.7.8,8.2h-11.9s-1.2-9.2-1.2-9.2h-.5c-2,2.9-4.9,5.5-8.8,7.6-3.8,2.2-8.4,3.2-13.6,3.2-3.7,0-7-.6-9.8-1.8-2.8-1.2-5.1-2.8-6.9-4.8-1.9-2-3.3-4.2-4.2-6.7-1-2.5-1.4-5.1-1.4-7.7,0-8.9,3.8-15.6,11.3-20.3,7.6-4.7,18.4-7,32.6-6.9v-1.5c0-1.5-.2-3.2-.5-5.2-.4-2-1.1-3.8-2.2-5.6-1.1-1.8-2.8-3.2-5-4.4-2.2-1.2-5.2-1.7-8.9-1.7-3.5,0-7,.5-10.3,1.4-3.3,1-6.3,2.3-8.9,4l-3-8.9c3-1.9,6.6-3.5,10.9-4.6,4.2-1.2,8.7-1.7,13.3-1.7,5.6,0,10.3.9,13.9,2.6,3.6,1.8,6.5,4.1,8.5,6.9,2.1,2.8,3.5,6,4.3,9.6.8,3.6,1.2,7.2,1.2,10.8v27.4ZM1118.4,94.6c-3.6-.1-7.3,0-11,.5-3.7.4-7,1.2-10,2.3-3,1.2-5.4,2.8-7.3,5.1-1.9,2.2-2.8,5.1-2.8,8.6,0,4.4,1.2,7.7,3.7,9.7,2.5,2,5.4,3,8.7,3,4.8,0,8.8-1.3,11.8-3.8,3-2.5,5.1-5.3,6.2-8.5.4-1.2.6-2.6.6-4.2v-12.7Z"/>
            <path class="cls-1" d="M1152.7,78.6c0-3.8,0-7.3-.2-10.5-.1-3.2-.3-6.3-.5-9.3h11.8s.8,11.9.8,11.9h.3c.9-1.7,2.1-3.4,3.6-5,1.5-1.6,3.3-3.1,5.3-4.4,2-1.3,4.3-2.3,6.9-3.1,2.6-.8,5.4-1.1,8.4-1.1,2.5,0,5.3.5,8.3,1.4,3,.9,5.8,2.5,8.4,4.8,2.6,2.3,4.7,5.5,6.5,9.5,1.8,4,2.6,9.2,2.6,15.4v43.7h-13.3v-42.1c0-2.9-.3-5.7-.9-8.4-.6-2.7-1.6-5-2.9-6.9-1.3-2-3-3.5-5.2-4.7-2.2-1.2-4.8-1.7-7.9-1.7-4.3,0-8.1,1.3-11.3,4-3.2,2.7-5.4,5.9-6.6,9.6-.3.8-.5,1.8-.7,2.9-.2,1.1-.2,2.2-.2,3.3v44h-13.3v-53.3Z"/>
            <path class="cls-1" d="M1288.6,129.4c-1.7.8-4.4,1.7-8.1,2.7-3.7,1-8,1.5-12.9,1.5s-10.6-.9-15-2.7c-4.5-1.8-8.3-4.4-11.4-7.6-3.1-3.3-5.6-7.2-7.3-11.8-1.7-4.6-2.5-9.7-2.5-15.3,0-5.6.9-10.8,2.8-15.6,1.8-4.7,4.5-8.8,7.9-12.3,3.4-3.5,7.5-6.2,12.3-8.2,4.8-2,10.2-2.9,16.2-2.9,3.9,0,7.5.4,10.8,1.2,3.3.8,5.8,1.7,7.6,2.7l-3,10.1c-1.6-.8-3.7-1.6-6.2-2.3-2.5-.8-5.6-1.1-9.2-1.1-4.2,0-7.9.7-11.1,2.2-3.2,1.5-5.9,3.5-8.1,6-2.2,2.5-3.9,5.5-5,8.8-1.1,3.4-1.7,7-1.7,10.8,0,4.2.6,8,1.9,11.4,1.3,3.4,3,6.2,5.3,8.6,2.3,2.4,5,4.2,8.1,5.4,3.1,1.3,6.5,1.9,10.1,1.9,3.8,0,7-.4,9.6-1.1,2.6-.8,4.8-1.5,6.7-2.3l2.3,10Z"/>
            <path class="cls-1" d="M1311.9,97.6c0,4.5.8,8.4,2.2,11.6,1.4,3.2,3.2,5.8,5.4,7.9,2.3,2.1,4.9,3.6,7.9,4.5,3,1,6.1,1.4,9.4,1.4,4.8,0,8.8-.4,11.9-1.1,3.1-.7,5.9-1.6,8.3-2.6l2.4,9.4c-2.3,1.1-5.5,2.2-9.6,3.2-4.1,1-9,1.5-14.9,1.5-5.6,0-10.7-.9-15.1-2.6-4.4-1.8-8.2-4.3-11.3-7.6-3.1-3.3-5.4-7.2-7.1-11.7-1.7-4.5-2.5-9.5-2.5-15,0-5.5.8-10.7,2.4-15.6,1.6-4.8,3.9-9,6.9-12.5,3-3.5,6.6-6.3,10.8-8.4,4.2-2.1,9-3.1,14.4-3.1,5.9,0,10.9,1.2,14.7,3.5,3.9,2.3,6.9,5.2,9.2,8.7,2.3,3.5,3.9,7.2,4.8,11.3.9,4,1.4,7.7,1.4,11,0,2.7-.2,4.8-.5,6.3l-51.2-.2ZM1350.7,88.1c0-2.1-.3-4.4-.8-6.9-.5-2.5-1.4-4.8-2.8-7-1.4-2.2-3.2-4.1-5.6-5.5-2.4-1.5-5.4-2.2-9.1-2.2-3.4,0-6.3.7-8.8,2.1-2.4,1.4-4.5,3.2-6.1,5.3-1.7,2.1-2.9,4.4-3.8,7-.9,2.5-1.4,4.9-1.7,7.3h38.7Z"/>
          </g>
        </g>
      </g>
    </g>
  </g>
</svg>